HIERARCHY
ROOT hip
{
	OFFSET 0.000000 0.000000 0.000000 
	CHANNELS 6 Xposition Yposition Zposition Xrotation Zrotation Yrotation
	JOINT abdomen
	{
		OFFSET 0.000000 3.402643 0.000000 
		CHANNELS 3 Xrotation Zrotation Yrotation
		JOINT chest
		{
			OFFSET 0.000000 8.438565 -0.680529 
			CHANNELS 3 Xrotation Zrotation Yrotation
			JOINT neck
			{
				OFFSET 0.000000 10.207942 -0.272212 
				CHANNELS 3 Xrotation Zrotation Yrotation
				JOINT head
				{
					OFFSET 0.000000 3.130431 0.000000 
					CHANNELS 3 Xrotation Zrotation Yrotation
					End Site
					{
						OFFSET 0.000000 3.130435 0.000000 
					}
				}
			}
			JOINT lCollar
			{
				OFFSET 3.470700 6.669187 -0.816635 
				CHANNELS 3 Yrotation Zrotation Xrotation
				JOINT lShldr
				{
					OFFSET 3.198488 0.000000 0.000000 
					CHANNELS 3 Zrotation Yrotation Xrotation
					JOINT lForeArm
					{
						OFFSET 10.139888 0.000000 0.000000 
						CHANNELS 3 Yrotation Zrotation Xrotation
						JOINT lHand
						{
							OFFSET 8.370511 0.000000 0.000000 
							CHANNELS 3 Zrotation Yrotation Xrotation
							End Site
							{
								OFFSET 4.083176 0.000000 0.000000 
							}
						}
					}
				}
			}
			JOINT rCollar
			{
				OFFSET -3.470700 6.669187 -0.816635 
				CHANNELS 3 Yrotation Zrotation Xrotation
				JOINT rShldr
				{
					OFFSET -3.198488 0.000000 0.000000 
					CHANNELS 3 Zrotation Yrotation Xrotation
					JOINT rForeArm
					{
						OFFSET -10.139888 0.000000 0.000000 
						CHANNELS 3 Yrotation Zrotation Xrotation
						JOINT rHand
						{
							OFFSET -8.370511 0.000000 0.000000 
							CHANNELS 3 Zrotation Yrotation Xrotation
							End Site
							{
								OFFSET -4.083176 0.000000 0.000000 
							}
						}
					}
				}
			}
		}
	}
	JOINT lThigh
	{
		OFFSET 5.308129 -1.633274 1.361059 
		CHANNELS 3 Xrotation Zrotation Yrotation
		JOINT lShin
		{
			OFFSET -2.041588 -20.007561 0.000000 
			CHANNELS 3 Xrotation Zrotation Yrotation
			JOINT lFoot
			{
				OFFSET 0.000000 -19.190928 -1.224953 
				CHANNELS 3 Xrotation Yrotation Zrotation
				End Site
				{
					OFFSET 0.000000 -2.449906 4.627600 
				}
			}
		}
	}
	JOINT rThigh
	{
		OFFSET -5.308129 -1.633274 1.361059 
		CHANNELS 3 Xrotation Zrotation Yrotation
		JOINT rShin
		{
			OFFSET 2.041588 -20.007561 0.000000 
			CHANNELS 3 Xrotation Zrotation Yrotation
			JOINT rFoot
			{
				OFFSET 0.000000 -19.190928 -1.224953 
				CHANNELS 3 Xrotation Yrotation Zrotation
				End Site
				{
					OFFSET 0.000000 -2.449906 4.627600 
				}
			}
		}
	}
}
MOTION
Frames: 16
Frame Time: 0.016667
-1.009691 42.263020 -0.326056 0.039086 -1.982420 -1.271220 -17.078600 -0.325945 -0.674905 23.263201 -1.882660 -0.411522 13.824600 -7.285190 2.029040 11.110000 1.584300 1.527180 2.000000 -2.000000 0.000000 95.605301 -176.440002 -2.081360 25.049101 -0.338706 0.057945 0.071300 -0.071673 -163.455002 -2.000000 2.000000 0.000000 -90.801697 176.397995 -7.393770 -27.422199 0.336203 0.062967 -0.056263 0.024381 -145.662003 -1.736659 0.312454 5.442192 15.132049 3.991449 0.982252 -12.332792 4.147370 0.942491 -7.688067 6.056810 1.164515 26.578617 -2.733695 -2.051577 -21.340481 -12.906012 -5.408790 
-1.007327 42.263531 -0.324735 0.029314 -1.953120 -1.270860 -17.049299 -0.344628 -0.669215 23.312000 -1.892340 -0.413597 13.814600 -7.312410 2.042250 11.110000 1.574610 1.525980 2.000000 -2.000000 0.000000 95.585800 -176.382004 -1.993330 25.029600 -0.338725 0.057903 0.071349 -0.071771 -163.494003 -2.000000 2.000000 0.000000 -90.801598 176.389008 -7.247260 -27.539400 0.336074 0.063215 -0.056309 0.024678 -145.768997 -1.725250 0.275334 5.468950 15.164601 3.982653 0.980905 -12.342935 4.147768 0.943092 -7.626590 6.024017 1.182815 26.492290 -2.716880 -2.058992 -21.286074 -12.940640 -5.410017 
-1.006202 42.263268 -0.327312 0.009771 -1.962890 -1.279970 -17.020000 -0.338732 -0.681259 23.341299 -1.872790 -0.423378 13.804500 -7.339630 2.055470 11.110000 1.574610 1.535740 2.000000 -2.000000 0.000000 95.536903 -176.343002 -1.895580 25.058901 -0.338696 0.057966 0.071435 -0.071942 -163.561996 -2.000000 2.000000 0.000000 -90.811302 176.360001 -7.130010 -27.617500 0.335987 0.063380 -0.056338 0.024867 -145.837997 -1.716280 0.274147 5.458498 15.155814 3.977555 0.980257 -12.335977 4.167753 0.953467 -7.616044 6.022029 1.203526 26.511599 -2.720280 -2.059408 -21.279432 -12.950901 -5.416888 
-1.005811 42.263268 -0.331131 0.000000 -1.972660 -1.269530 -17.000401 -0.332830 -0.693283 23.360901 -1.863000 -0.433304 13.804000 -7.357180 2.070290 11.119700 1.564870 1.544570 2.000000 -2.000000 0.000000 95.488098 -176.304001 -1.797830 25.107700 -0.338646 0.058072 0.071533 -0.072138 -163.639999 -2.000000 2.000000 0.000000 -90.821098 176.320999 -7.032260 -27.685900 0.335912 0.063524 -0.056359 0.025002 -145.886993 -1.713025 0.290312 5.439480 15.160078 4.000235 0.983262 -12.345474 4.144086 0.930950 -7.628597 6.053988 1.230268 26.540216 -2.724703 -2.050260 -21.295721 -12.987189 -5.417750 
-1.005858 42.264046 -0.334566 0.000000 -1.972660 -1.259770 -16.980801 -0.330355 -0.714444 23.390100 -1.843450 -0.433288 13.803500 -7.374740 2.085120 11.129500 1.564820 1.554600 2.000000 -2.000000 0.000000 95.439201 -176.274994 -1.719630 25.176100 -0.338577 0.058219 0.071607 -0.072284 -163.699005 -2.000000 2.000000 0.000000 -90.830803 176.281998 -6.944280 -27.734699 0.335858 0.063627 -0.056377 0.025110 -145.925995 -1.699784 0.297237 5.448750 15.174229 3.987746 1.000999 -12.352150 4.121141 0.929966 -7.672018 6.062469 1.215539 26.626984 -2.740991 -2.052548 -21.333868 -12.977852 -5.429008 
-1.006313 42.264687 -0.338036 -0.009771 -1.962890 -1.259430 -16.951401 -0.327880 -0.735607 23.419399 -1.814140 -0.442529 13.803300 -7.401790 2.097640 11.129500 1.564820 1.564370 2.000000 -2.000000 0.000000 95.380600 -176.246002 -1.690270 25.322500 -0.338428 0.058536 0.071484 -0.072040 -163.600998 -2.000000 2.000000 0.000000 -90.850304 176.253006 -6.846550 -27.773701 0.335814 0.063710 -0.056394 0.025218 -145.964996 -1.717578 0.289353 5.508369 15.182807 3.990395 0.981829 -12.336217 4.100469 0.941017 -7.657776 6.048928 1.216911 26.616978 -2.743047 -2.053115 -21.331226 -12.977975 -5.440479 
-1.005802 42.263268 -0.340021 -0.039085 -1.962890 -1.258430 -16.922001 -0.321973 -0.747617 23.448700 -1.794590 -0.452235 13.803400 -7.420050 2.102740 11.129400 1.555120 1.563160 2.000000 -2.000000 0.000000 95.321999 -176.225998 -1.690220 25.488600 -0.338258 0.058893 0.071215 -0.071502 -163.386993 -2.000000 2.000000 0.000000 -90.860001 176.223999 -6.758590 -27.793301 0.335792 0.063751 -0.056411 0.025326 -146.003998 -1.692949 0.294787 5.536388 15.203441 3.990313 0.991416 -12.334260 4.109790 0.934930 -7.639080 6.056361 1.219282 26.607227 -2.742414 -2.053082 -21.323561 -12.997744 -5.428625 
-1.005313 42.262371 -0.342017 -0.048857 -1.982420 -1.267840 -16.902399 -0.316062 -0.759612 23.478001 -1.784790 -0.462419 13.803700 -7.429530 2.100430 11.129400 1.555120 1.563160 2.000000 -2.000000 0.000000 95.282997 -176.207001 -1.651110 25.596001 -0.338148 0.059125 0.071021 -0.071110 -163.229996 -2.000000 2.000000 0.000000 -90.869797 176.195007 -6.699930 -27.802999 0.335782 0.063772 -0.056420 0.025380 -146.022995 -1.697273 0.315683 5.527966 15.261843 3.998781 0.992215 -12.381447 4.125593 0.933439 -7.629070 6.068595 1.220451 26.617134 -2.741358 -2.052779 -21.310671 -12.999789 -5.428706 
-1.004997 42.262627 -0.344642 -0.039086 -2.001950 -1.268170 -16.882900 -0.316065 -0.759621 23.507299 -1.794490 -0.463835 13.814400 -7.439540 2.087660 11.139100 1.545380 1.552450 2.000000 -2.000000 0.000000 95.243896 -176.188004 -1.572940 25.625299 -0.338117 0.059188 0.071009 -0.071085 -163.220993 -2.000000 2.000000 0.000000 -90.879501 176.175995 -6.651050 -27.793301 0.335792 0.063751 -0.056420 0.025380 -146.022995 -1.723914 0.335969 5.501326 15.283590 3.992680 0.991956 -12.396358 4.141959 0.942732 -7.633533 6.093757 1.210510 26.586985 -2.744763 -2.044199 -21.305256 -13.025936 -5.443030 
-1.005636 42.263786 -0.348304 -0.039087 -2.011720 -1.268160 -16.873100 -0.319495 -0.768770 23.526800 -1.794460 -0.464447 13.814700 -7.449020 2.085350 11.139100 1.545380 1.552450 2.000000 -2.000000 0.000000 95.214600 -176.158997 -1.484980 25.625299 -0.338117 0.059188 0.071069 -0.071208 -163.268997 -2.000000 2.000000 0.000000 -90.879501 176.166000 -6.621730 -27.783501 0.335803 0.063731 -0.056415 0.025353 -146.014008 -1.736505 0.356997 5.513043 15.302462 3.997822 0.991859 -12.396746 4.144459 0.933098 -7.643390 6.113175 1.228642 26.578047 -2.731355 -2.031667 -21.307796 -13.018064 -5.449192 
-1.005661 42.264942 -0.352150 -0.029315 -2.011720 -1.278270 -16.863300 -0.319496 -0.768775 23.556200 -1.794410 -0.465364 13.815000 -7.458510 2.083040 11.139100 1.545380 1.552450 2.000000 -2.000000 0.000000 95.185303 -176.139008 -1.406810 25.605801 -0.338138 0.059146 0.071130 -0.071331 -163.317993 -2.000000 2.000000 0.000000 -90.879501 176.156006 -6.611940 -27.754200 0.335836 0.063669 -0.056407 0.025299 -145.994003 -1.764618 0.362467 5.524951 15.323360 3.996672 1.002006 -12.409382 4.137616 0.929916 -7.647521 6.123561 1.227485 26.567745 -2.740726 -2.043626 -21.282541 -13.003520 -5.437874 
-1.005649 42.265839 -0.356799 -0.019544 -2.031250 -1.288370 -16.853500 -0.319498 -0.768780 23.575701 -1.794380 -0.465976 13.805800 -7.477650 2.079150 11.129300 1.535740 1.550980 2.000000 -2.000000 0.000000 95.155998 -176.110001 -1.357910 25.576500 -0.338168 0.059083 0.071130 -0.071331 -163.317993 -2.000000 2.000000 0.000000 -90.889297 176.136993 -6.602130 -27.705400 0.335890 0.063566 -0.056389 0.025191 -145.955002 -1.799355 0.383677 5.518468 15.344954 3.991113 1.001141 -12.398846 4.131115 0.948015 -7.647659 6.139328 1.246863 26.558105 -2.734750 -2.032734 -21.292170 -13.014444 -5.423553 
-1.005614 42.266357 -0.361844 -0.009772 -2.050780 -1.308240 -16.843800 -0.310152 -0.771613 23.605000 -1.794330 -0.466893 13.795700 -7.486620 2.087300 11.129300 1.535740 1.550980 2.000000 -2.000000 0.000000 95.126701 -176.080994 -1.338310 25.547199 -0.338198 0.059019 0.071069 -0.071208 -163.268997 -2.000000 2.000000 0.000000 -90.899002 176.117004 -6.592320 -27.646799 0.335955 0.063442 -0.056372 0.025083 -145.916000 -1.803145 0.377747 5.498827 15.343513 3.996784 1.001916 -12.396264 4.171888 0.957975 -7.660085 6.140229 1.265031 26.558367 -2.732007 -2.032073 -21.301434 -12.992254 -5.433770 
-1.005780 42.267258 -0.367112 -0.009772 -2.060550 -1.327770 -16.824200 -0.310154 -0.771619 23.624599 -1.804050 -0.458263 13.775800 -7.495760 2.096190 11.129300 1.535740 1.560740 2.000000 -2.000000 0.000000 95.107101 -176.052002 -1.308940 25.508101 -0.338238 0.058935 0.071033 -0.071135 -163.240005 -2.000000 2.000000 0.000000 -90.918602 176.098007 -6.602040 -27.578400 0.336031 0.063297 -0.056351 0.024948 -145.867004 -1.833531 0.409067 5.502382 15.384193 3.997175 1.011475 -12.416596 4.176199 0.950060 -7.664060 6.166972 1.294013 26.539343 -2.729774 -2.041639 -21.287470 -13.013743 -5.443748 
-1.006333 42.268673 -0.372795 0.000000 -2.070310 -1.337890 -16.814501 -0.316075 -0.759655 23.634399 -1.813790 -0.459096 13.746000 -7.505080 2.105820 11.119500 1.526110 1.559270 2.000000 -2.000000 0.000000 95.097397 -176.031998 -1.260070 25.478800 -0.338268 0.058872 0.071045 -0.071159 -163.250000 -2.000000 2.000000 0.000000 -90.918602 176.087997 -6.621550 -27.510099 0.336106 0.063153 -0.056330 0.024813 -145.817993 -1.829308 0.425943 5.483324 15.397695 3.983677 1.009564 -12.432054 4.190911 0.958506 -7.640162 6.180631 1.306234 26.432133 -2.718000 -2.030975 -21.216925 -13.050860 -5.456732 
-1.006857 42.270088 -0.378882 0.009772 -2.080080 -1.348370 -16.814501 -0.306727 -0.762478 23.653900 -1.813750 -0.459714 13.725900 -7.523010 2.122150 11.109700 1.526160 1.568780 2.000000 -2.000000 0.000000 95.077797 -176.013000 -1.240490 25.439699 -0.338308 0.058788 0.071045 -0.071159 -163.250000 -2.000000 2.000000 0.000000 -90.938103 176.067993 -6.611730 -27.441700 0.336181 0.063008 -0.056313 0.024705 -145.779007 -1.835082 0.436288 5.494048 15.369705 3.974710 1.008522 -12.409489 4.196594 0.959971 -7.693250 6.193710 1.309642 26.509876 -2.730110 -2.042170 -21.247431 -13.047571 -5.436482 
